<?xml version="1.0" encoding="UTF-8"?>
<svg version="1.0" xmlns="http://www.w3.org/2000/svg"
 width="901pt" height="450pt" viewBox="0 0 901 450"
 preserveAspectRatio="xMidYMid meet">

<defs>
  <linearGradient id="goldGrad" x1="0" y1="0" x2="0" y2="1">
    <stop offset="0%"   stop-color="#F5E07A"/>
    <stop offset="28%"  stop-color="#C9A640"/>
    <stop offset="60%"  stop-color="#8B6414"/>
    <stop offset="85%"  stop-color="#C9A640"/>
    <stop offset="100%" stop-color="#EDD054"/>
  </linearGradient>
</defs>

<g transform="translate(0.000000,450.000000) scale(0.100000,-0.100000)"
fill="url(#goldGrad)" stroke="none">
<path d="M0 2250 l0 -2250 1078 2 c592 0 1061 3 1042 5 -19 1 -84 8 -145 13
-133 13 -190 23 -364 63 -128 30 -171 50 -171 80 0 6 9 0 20 -13 11 -13 20
-18 20 -13 0 6 10 13 21 16 14 4 20 11 16 20 -4 10 2 17 15 20 24 7 19 32 -7
32 -10 0 -21 7 -23 15 -8 24 -33 44 -40 34 -4 -6 -14 -3 -24 8 -10 10 -16 18
-13 18 3 0 -3 8 -14 19 -22 22 -77 39 -65 20 5 -8 3 -9 -5 -5 -7 5 -10 11 -7
14 9 8 -64 31 -79 26 -7 -3 -15 2 -19 11 -3 10 -12 15 -21 11 -8 -3 -15 -1
-15 5 0 6 -5 7 -10 4 -6 -3 -13 1 -16 9 -3 9 -11 16 -16 16 -35 0 -255 129
-368 215 -76 59 -254 224 -261 245 -4 9 -25 42 -47 73 -38 54 -40 56 -51 34
-6 -12 -10 -15 -7 -6 2 9 -1 22 -7 28 -9 9 -8 11 6 6 9 -4 17 -5 17 -2 0 11
-95 192 -102 195 -5 2 -6 7 -3 12 3 4 -4 43 -15 86 -11 44 -20 96 -20 117 0
20 -5 37 -11 37 -12 0 -8 -59 8 -120 6 -24 5 -47 -4 -75 l-12 -40 1 47 c1 26
-1 50 -5 54 -11 12 -8 176 3 169 6 -3 10 4 10 17 0 19 -2 20 -10 8 -8 -12 -10
-9 -6 10 3 14 8 57 13 95 l7 70 7 -128 c9 -154 30 -263 70 -366 85 -214 209
-379 399 -530 232 -185 517 -314 865 -390 246 -54 330 -63 635 -68 375 -7 587
13 955 88 444 91 886 270 1262 512 88 56 276 203 321 250 30 31 68 140 397
1128 l363 1094 196 3 c153 2 196 0 196 -10 0 -19 -306 -934 -650 -1948 -10
-30 -18 -55 -17 -56 1 -1 818 -4 1814 -6 1074 -2 1813 -7 1813 -12 0 -22 -56
-79 -123 -123 -121 -81 -334 -142 -624 -180 -113 -14 -320 -16 -1752 -20
l-1623 -4 -97 -86 c-531 -474 -1289 -781 -2076 -842 -64 -5 1257 -9 3138 -10
l3247 -1 0 1250 0 1250 -170 -2 -170 -3 -169 -502 c-93 -276 -172 -507 -176
-512 -4 -7 -63 -11 -162 -11 -129 0 -154 2 -150 14 11 29 337 1007 337 1011 0
3 -83 6 -184 7 l-184 3 46 123 45 122 468 0 469 0 0 875 0 875 -4505 0 -4505
0 0 -2250z m4280 1941 c190 -12 371 -35 550 -71 573 -114 1029 -372 1245 -703
61 -95 95 -173 127 -295 31 -122 31 -330 0 -451 -22 -82 -42 -131 -26 -61 4
19 7 86 6 148 -3 274 -116 502 -342 690 -430 358 -1108 540 -1930 518 -577
-15 -1071 -105 -1568 -287 -881 -322 -1640 -955 -1923 -1604 -35 -79 -65 -143
-67 -141 -11 12 61 215 122 341 155 319 374 596 701 886 322 286 739 536 1199
721 573 229 1297 346 1906 309z m4405 -167 c78 -38 159 -118 193 -191 24 -52
27 -70 27 -163 0 -100 -1 -108 -34 -167 -61 -113 -172 -193 -293 -212 -73 -12
-182 5 -243 37 -69 37 -144 115 -180 187 -26 54 -29 70 -30 155 0 88 3 101 33
162 52 106 120 166 237 210 78 29 211 21 290 -18z m-6565 -789 c0 -3 -62 -67
-138 -142 -164 -164 -207 -225 -346 -491 -58 -111 -139 -262 -180 -335 -40
-72 -88 -159 -106 -192 -92 -167 -276 -470 -310 -510 -9 -11 -33 -47 -53 -80
-51 -84 -93 -130 -102 -114 -5 8 -4 10 3 5 7 -4 12 -1 12 8 0 9 5 16 10 16 6
0 10 7 10 16 0 12 -7 15 -26 11 -18 -3 -33 2 -50 18 l-25 23 24 49 c13 26 38
87 57 136 18 48 39 87 46 87 7 0 16 5 20 12 5 8 2 9 -9 5 -21 -8 -22 2 -3 28
8 11 41 88 74 170 72 180 157 383 218 522 25 56 53 126 63 155 11 29 31 80 46
113 15 33 33 74 40 90 18 40 89 210 133 318 l35 87 279 0 c153 0 278 -2 278
-5z m830 2 c0 -1 -54 -137 -121 -302 -67 -165 -143 -354 -169 -420 -27 -66
-77 -192 -113 -280 -276 -684 -366 -906 -407 -1010 -26 -66 -62 -157 -81 -202
l-34 -83 -162 0 c-125 0 -161 3 -158 13 2 6 22 64 44 127 22 63 89 264 150
445 60 182 134 401 165 489 31 87 55 160 53 162 -4 4 -348 -657 -600 -1154
l-41 -82 -104 0 -104 0 5 33 c25 148 31 176 38 172 4 -3 5 4 2 14 -5 19 8 120
28 211 18 88 58 296 74 395 48 292 76 410 112 480 164 319 281 538 311 580 79
111 263 314 249 274 -3 -9 -19 -65 -35 -125 -102 -369 -228 -820 -251 -901 -5
-18 -6 -33 -3 -33 7 0 125 204 318 545 105 187 258 454 316 553 l60 102 229 0
c126 0 229 -1 229 -3z m3680 -500 c0 -13 -239 -734 -367 -1104 l-55 -163 -159
0 c-88 0 -159 3 -159 6 0 4 311 948 400 1214 4 14 11 33 14 43 5 15 22 17 166
17 126 0 160 -3 160 -13z m1200 7 c0 -3 -27 -59 -61 -125 l-61 -119 -236 0
c-130 0 -247 -3 -259 -6 -18 -5 -29 -27 -58 -113 -19 -58 -35 -109 -35 -114 0
-4 113 -7 251 -7 l250 0 -7 -22 c-3 -13 -28 -70 -53 -128 l-47 -105 -244 -3
-245 -3 -86 -262 -86 -262 -156 -3 c-122 -2 -157 0 -157 10 0 7 93 295 207
640 l208 627 438 1 c240 0 437 -3 437 -6z m-4400 -530 c0 -3 -22 -58 -48 -123
-51 -122 -128 -308 -340 -831 l-129 -315 -131 -3 c-73 -1 -132 0 -132 3 0 3
18 47 39 98 21 51 58 142 82 202 24 61 46 114 47 118 2 4 -46 6 -108 5 l-112
-3 -61 -115 c-33 -63 -84 -158 -111 -210 l-51 -95 -127 -2 c-71 -1 -128 -1
-128 1 0 2 269 509 370 696 40 74 102 190 138 257 100 189 193 277 327 309 51
13 475 20 475 8z m682 -18 c92 -45 104 -159 33 -316 -295 -657 -328 -722 -408
-803 -117 -119 -181 -137 -504 -137 -134 0 -243 2 -243 4 0 5 43 102 81 184
17 35 47 102 68 150 21 48 91 201 155 340 64 139 116 255 116 257 0 1 22 49
48 106 27 57 62 135 78 172 l29 68 255 -3 c225 -3 259 -5 292 -22z m978 17 c0
-15 -219 -555 -410 -1013 -26 -63 -61 -146 -77 -185 l-29 -70 -127 -3 c-107
-2 -127 0 -127 12 0 8 20 61 44 118 61 144 116 280 116 290 0 4 -48 8 -107 8
l-108 0 -94 -178 c-52 -97 -105 -194 -118 -214 l-23 -38 -125 0 c-69 0 -125 2
-125 5 0 3 57 110 126 238 70 127 158 291 197 362 138 256 200 371 233 431 63
116 175 206 289 233 48 11 465 14 465 4z m-3721 -323 c-82 -226 -174 -480
-254 -700 -31 -85 -64 -176 -73 -202 l-16 -48 -200 0 c-109 0 -197 1 -195 3 2
1 13 9 23 17 11 8 17 10 14 5 -4 -6 16 -10 55 -9 101 2 192 13 195 24 2 6 13
4 25 -5 29 -20 46 -19 42 3 -1 9 0 11 2 5 9 -25 32 -12 44 25 18 52 19 63 8
83 -5 11 -5 27 0 41 l9 23 10 -25 c11 -25 11 -25 11 -2 1 13 5 20 11 17 6 -3
10 -2 10 4 0 5 3 17 7 27 4 11 3 15 -4 11 -6 -4 -13 2 -16 13 -3 11 -1 18 3
15 13 -8 18 18 8 40 -8 18 -7 17 10 -2 16 -18 21 -20 26 -8 3 8 -1 18 -8 22
-7 5 -16 19 -20 33 -6 25 -6 25 5 3 13 -24 24 -29 33 -14 9 14 -27 72 -41 66
-8 -2 -13 3 -13 13 0 19 -45 29 -55 12 -3 -5 0 -8 7 -7 7 2 9 2 5 -1 -4 -2 -3
-10 4 -18 6 -8 7 -14 2 -14 -5 0 -15 8 -24 18 -14 17 -11 25 44 107 91 139
348 568 363 608 3 10 8 16 10 15 2 -2 -29 -91 -67 -198z m-565 -502 c-1 -24
-4 -50 -6 -58 -1 -8 4 -14 12 -15 18 -1 14 -27 -6 -38 -8 -4 -14 -15 -14 -24
0 -11 9 -5 25 17 25 34 34 80 15 80 -5 0 -10 6 -10 14 0 11 6 11 34 -2 l35
-16 -36 -50 c-40 -55 -201 -246 -208 -246 -8 0 46 115 55 118 6 2 10 12 10 22
0 33 22 70 42 70 10 0 18 5 18 11 0 6 -6 9 -14 6 -12 -5 -12 1 1 39 9 26 19
41 25 37 7 -4 8 -1 4 6 -6 10 10 71 18 71 2 0 1 -19 0 -42z m206 -53 c14 -16
10 -18 -14 -9 -9 3 -16 10 -16 15 0 14 16 11 30 -6z m-90 -89 c0 -2 -8 -10
-17 -17 -16 -13 -17 -12 -4 4 13 16 21 21 21 13z m-600 -36 c0 -5 -7 -10 -15
-10 -8 0 -15 5 -15 10 0 6 7 10 15 10 8 0 15 -4 15 -10z m597 -57 c-7 -6 -46
10 -41 18 3 5 14 3 24 -3 11 -7 18 -13 17 -15z m-134 -85 c-5 -23 -5 -23 11
-3 17 20 17 20 11 -1 -3 -13 1 -28 10 -37 8 -9 15 -20 15 -25 0 -9 -50 -35
-56 -29 -7 7 9 46 17 41 5 -3 9 -1 9 5 0 21 -22 22 -39 3 -12 -14 -22 -18 -31
-12 -12 7 -8 16 20 45 18 19 35 35 36 35 1 0 0 -10 -3 -22z m247 -32 c0 -3 -4
-8 -10 -11 -5 -3 -10 -1 -10 4 0 6 5 11 10 11 6 0 10 -2 10 -4z m-638 -44 c11
-4 14 -12 10 -19 -6 -9 -12 -7 -25 7 -17 21 -14 23 15 12z m59 -157 c5 4 9 1
9 -5 0 -20 -25 -4 -26 16 -1 16 0 16 3 1 3 -9 9 -15 14 -12z m24 -25 c-3 -5 2
-10 12 -10 15 0 16 -2 3 -10 -9 -6 -17 -5 -22 3 -6 11 -2 27 8 27 3 0 2 -4 -1
-10z m740 -440 c-3 -5 -12 -10 -18 -10 -7 0 -6 4 3 10 19 12 23 12 15 0z m175
-75 c-14 -17 -40 -20 -40 -6 0 8 18 16 44 20 5 0 3 -6 -4 -14z m-150 -85 c12
-8 11 -10 -7 -10 -12 0 -25 5 -28 10 -8 13 15 13 35 0z m97 -28 c-1 -4 3 -7 8
-7 6 0 9 3 8 8 -2 4 2 7 7 7 12 0 13 -10 2 -28 -7 -10 -15 -10 -40 1 -18 7
-30 15 -28 18 8 8 46 8 43 1z m89 -12 c0 -11 -5 -20 -11 -21 -5 0 -1 -4 10 -9
28 -12 2 -12 -30 0 -14 5 -24 14 -20 20 3 5 12 7 21 3 8 -3 14 -2 13 3 -3 15
1 24 9 24 4 0 8 -9 8 -20z m54 10 c0 -5 -2 -10 -4 -10 -3 0 -8 5 -11 10 -3 6
-1 10 4 10 6 0 11 -4 11 -10z"/>
<path d="M8425 3986 c-108 -35 -168 -87 -214 -186 -36 -79 -36 -183 2 -261 67
-139 229 -220 375 -186 253 58 346 352 173 540 -79 85 -232 128 -336 93z m196
-109 c56 -37 68 -133 23 -186 -14 -17 -32 -31 -39 -31 -20 0 -28 -19 -15 -34
6 -8 30 -50 54 -95 l44 -81 -41 0 -42 0 -48 95 c-47 92 -49 95 -82 95 l-34 0
-3 -92 -3 -93 -34 0 -34 0 2 220 c0 121 1 222 1 224 0 2 51 1 113 -1 85 -3
118 -8 138 -21z"/>
<path d="M8440 3770 l0 -70 63 0 c75 0 97 16 97 73 0 49 -28 67 -102 67 l-58
0 0 -70z"/>
<path d="M985 1620 c4 -6 11 -8 16 -5 14 9 11 15 -7 15 -8 0 -12 -5 -9 -10z"/>
<path d="M917 1556 c-3 -8 -2 -18 4 -22 16 -9 22 2 11 21 -8 15 -10 16 -15 1z"/>
<path d="M881 1501 c-8 -6 -9 -11 -3 -15 6 -3 14 -1 17 5 9 14 2 20 -14 10z"/>
<path d="M905 1480 c-3 -5 -1 -10 4 -10 6 0 11 5 11 10 0 6 -2 10 -4 10 -3 0
-8 -4 -11 -10z"/>
<path d="M840 1474 c0 -12 31 -35 40 -29 6 4 5 12 -4 21 -15 14 -36 19 -36 8z"/>
<path d="M1313 1118 c2 -7 0 -21 -5 -30 -6 -14 -5 -16 7 -12 15 6 17 54 2 54
-5 0 -7 -6 -4 -12z"/>
<path d="M2963 1959 c-18 -5 -43 -24 -57 -42 -28 -37 -163 -275 -168 -296 -2
-11 16 -14 89 -16 l92 -3 70 172 c39 94 71 177 71 184 0 14 -49 15 -97 1z"/>
<path d="M3541 1593 c-94 -208 -173 -382 -174 -388 -4 -17 114 -17 159 0 67
25 52 -2 285 518 44 98 79 188 77 200 -4 31 -43 47 -114 47 l-61 0 -172 -377z"/>
<path d="M4635 1963 c-34 -8 -72 -52 -123 -142 -96 -168 -114 -202 -111 -206
2 -2 45 -5 94 -6 l90 -3 72 169 c39 94 72 176 72 183 1 12 -52 15 -94 5z"/>
<path d="M760 1241 c0 -5 5 -13 10 -16 6 -3 10 -2 10 4 0 5 -4 13 -10 16 -5 3
-10 2 -10 -4z"/>
<path d="M1436 315 c10 -8 24 -14 29 -14 6 0 1 6 -9 14 -11 8 -24 15 -30 15
-5 0 -1 -7 10 -15z"/>
<path d="M1560 270 c-11 -7 -12 -12 -3 -21 13 -13 33 -4 33 17 0 16 -9 18 -30
4z"/>
<path d="M1605 213 c-20 -15 -19 -15 5 -9 14 3 29 6 33 6 5 0 5 5 2 10 -8 14
-16 12 -40 -7z"/>
</g>
</svg>
